<svg width="33" height="36" fill="none" id="icon-Vector-2" viewBox="0 0 29 32">
<path stroke-linejoin="round" stroke-linecap="round" stroke-miterlimit="4" stroke-width="2.6667" d="M27.556 30.222v-3.161c-0.003-1.751-0.725-3.334-1.886-4.468l-0.001-0.001c-1.172-1.145-2.777-1.852-4.547-1.852-0.004 0-0.007 0-0.011 0h-12.888c-1.709 0-3.348 0.667-4.557 1.852-1.162 1.136-1.884 2.718-1.887 4.469v3.161M21.111 8.099c0 3.492-2.885 6.321-6.444 6.321s-6.444-2.83-6.444-6.32c0-3.492 2.885-6.322 6.444-6.322s6.444 2.83 6.444 6.321z"></path>
</svg>